<?xml version="1.0" encoding="utf-8"?>
<!-- Generator: Adobe Illustrator 21.0.0, SVG Export Plug-In . SVG Version: 6.00 Build 0)  -->
<svg version="1.0" id="图层_1" xmlns="http://www.w3.org/2000/svg" xmlns:xlink="http://www.w3.org/1999/xlink" x="0px" y="0px"
	 viewBox="0 0 98 35" style="enable-background:new 0 0 98 35;" xml:space="preserve">
<style type="text/css">
	.st0{fill:url(#SVGID_1_);}
	.st1{fill:none;}
	.st2{fill:url(#SVGID_2_);}
	.st3{fill:url(#SVGID_3_);}
	.st4{fill:url(#SVGID_4_);}
	.st5{fill:url(#SVGID_5_);}
	.st6{fill:url(#SVGID_6_);}
	.st7{fill:url(#SVGID_7_);}
	.st8{fill:url(#SVGID_8_);}
	.st9{fill:url(#SVGID_9_);}
	.st10{fill:url(#SVGID_10_);}
	.st11{fill:url(#SVGID_11_);}
	.st12{fill:url(#SVGID_12_);}
	.st13{fill:url(#SVGID_13_);}
	.st14{fill:url(#SVGID_14_);}
	.st15{fill:url(#SVGID_15_);}
	.st16{fill:url(#SVGID_16_);}
	.st17{fill:url(#SVGID_17_);}
	.st18{fill:url(#SVGID_18_);}
	.st19{fill:url(#SVGID_19_);}
	.st20{fill:#222222;}
	.st21{opacity:0.6;}
</style>
<g>
	<linearGradient id="SVGID_1_" gradientUnits="userSpaceOnUse" x1="35.1502" y1="10.7308" x2="-17.9955" y2="15.2586">
		<stop  offset="0" style="stop-color:#FFF11D"/>
		<stop  offset="1.119993e-02" style="stop-color:#FFEE1B"/>
		<stop  offset="9.744590e-02" style="stop-color:#FDDB0C"/>
		<stop  offset="0.1863" style="stop-color:#FBD003"/>
		<stop  offset="0.2809" style="stop-color:#FBCC00"/>
		<stop  offset="0.6685" style="stop-color:#F0932E"/>
		<stop  offset="0.8876" style="stop-color:#E9652D"/>
		<stop  offset="1" style="stop-color:#E4352B"/>
	</linearGradient>
	<path class="st0" d="M6.3,13.2c0.1,0,0.1,0,0.2,0C6.4,13.2,6.3,13.2,6.3,13.2L6.3,13.2z"/>
	<path class="st1" d="M8.8,18.1c0,0-0.1,0-0.2,0C8.7,18.1,8.8,18.1,8.8,18.1z"/>
	<linearGradient id="SVGID_2_" gradientUnits="userSpaceOnUse" x1="42.8972" y1="0.7324" x2="-10.2485" y2="5.2601">
		<stop  offset="0" style="stop-color:#FFF11D"/>
		<stop  offset="1.119993e-02" style="stop-color:#FFEE1B"/>
		<stop  offset="9.744590e-02" style="stop-color:#FDDB0C"/>
		<stop  offset="0.1863" style="stop-color:#FBD003"/>
		<stop  offset="0.2809" style="stop-color:#FBCC00"/>
		<stop  offset="0.6685" style="stop-color:#F0932E"/>
		<stop  offset="0.8876" style="stop-color:#E9652D"/>
		<stop  offset="1" style="stop-color:#E4352B"/>
	</linearGradient>
	<path class="st2" d="M14.2,3c0.3,0,1,0,1.9,0.1C15.5,3.1,14.9,3,14.2,3z"/>
	<linearGradient id="SVGID_3_" gradientUnits="userSpaceOnUse" x1="42.8844" y1="0.5827" x2="-10.2613" y2="5.1105">
		<stop  offset="0" style="stop-color:#FFF11D"/>
		<stop  offset="1.119993e-02" style="stop-color:#FFEE1B"/>
		<stop  offset="9.744590e-02" style="stop-color:#FDDB0C"/>
		<stop  offset="0.1863" style="stop-color:#FBD003"/>
		<stop  offset="0.2809" style="stop-color:#FBCC00"/>
		<stop  offset="0.6685" style="stop-color:#F0932E"/>
		<stop  offset="0.8876" style="stop-color:#E9652D"/>
		<stop  offset="1" style="stop-color:#E4352B"/>
	</linearGradient>
	<path class="st3" d="M14.1,3c0.1,0,0.1,0,0.2,0C14.1,3,14.1,3,14.1,3L14.1,3z"/>
	<path class="st1" d="M5.5,5.3c0,0,0.2-0.2,0.4-0.3C5.6,5.2,5.5,5.3,5.5,5.3z"/>
	<linearGradient id="SVGID_4_" gradientUnits="userSpaceOnUse" x1="42.9655" y1="1.5341" x2="-10.1802" y2="6.0619">
		<stop  offset="0" style="stop-color:#FFF11D"/>
		<stop  offset="1.119993e-02" style="stop-color:#FFEE1B"/>
		<stop  offset="9.744590e-02" style="stop-color:#FDDB0C"/>
		<stop  offset="0.1863" style="stop-color:#FBD003"/>
		<stop  offset="0.2809" style="stop-color:#FBCC00"/>
		<stop  offset="0.6685" style="stop-color:#F0932E"/>
		<stop  offset="0.8876" style="stop-color:#E9652D"/>
		<stop  offset="1" style="stop-color:#E4352B"/>
	</linearGradient>
	<path class="st4" d="M14.4,3.9l1.4,0C15.4,3.9,14.9,3.9,14.4,3.9z"/>
	<linearGradient id="SVGID_5_" gradientUnits="userSpaceOnUse" x1="43.5651" y1="8.5724" x2="-9.5806" y2="13.1002">
		<stop  offset="0" style="stop-color:#FFF11D"/>
		<stop  offset="1.119993e-02" style="stop-color:#FFEE1B"/>
		<stop  offset="9.744590e-02" style="stop-color:#FDDB0C"/>
		<stop  offset="0.1863" style="stop-color:#FBD003"/>
		<stop  offset="0.2809" style="stop-color:#FBCC00"/>
		<stop  offset="0.6685" style="stop-color:#F0932E"/>
		<stop  offset="0.8876" style="stop-color:#E9652D"/>
		<stop  offset="1" style="stop-color:#E4352B"/>
	</linearGradient>
	<path class="st5" d="M15.8,3.9l-1.4,0C12.9,4,11.1,4.4,9.4,5c-5.2,1.8-8.8,6.7-8.8,12.1c0,0,0,0.1,0,0.1c0,0.7,0,1.4,0.1,2.1
		C0.8,19.3-0.1,6.3,15.8,3.9z"/>
	<linearGradient id="SVGID_6_" gradientUnits="userSpaceOnUse" x1="11.6692" y1="17.9342" x2="4.8484" y2="5.24">
		<stop  offset="0" style="stop-color:#E4E653"/>
		<stop  offset="1" style="stop-color:#E6E63A;stop-opacity:0"/>
	</linearGradient>
	<path class="st6" d="M15.8,3.9l-1.4,0C12.9,4,11.1,4.4,9.4,5c-5.2,1.8-8.8,6.7-8.8,12.1c0,0,0,0.1,0,0.1c0,0.7,0,1.4,0.1,2.1
		C0.8,19.3-0.1,6.3,15.8,3.9z"/>
	<linearGradient id="SVGID_7_" gradientUnits="userSpaceOnUse" x1="24.7606" y1="18.1605" x2="18.6012" y2="6.6971">
		<stop  offset="0" style="stop-color:#E4E653"/>
		<stop  offset="1" style="stop-color:#E6E63A;stop-opacity:0"/>
	</linearGradient>
	<path class="st7" d="M20.7,10.3c0,0-0.1,0-0.3,0.1C20.6,10.3,20.7,10.3,20.7,10.3z"/>
	<linearGradient id="SVGID_8_" gradientUnits="userSpaceOnUse" x1="44.1249" y1="15.1427" x2="-9.0208" y2="19.6705">
		<stop  offset="0" style="stop-color:#FFF11D"/>
		<stop  offset="1.119993e-02" style="stop-color:#FFEE1B"/>
		<stop  offset="9.744590e-02" style="stop-color:#FDDB0C"/>
		<stop  offset="0.1863" style="stop-color:#FBD003"/>
		<stop  offset="0.2809" style="stop-color:#FBCC00"/>
		<stop  offset="0.6685" style="stop-color:#F0932E"/>
		<stop  offset="0.8876" style="stop-color:#E9652D"/>
		<stop  offset="1" style="stop-color:#E4352B"/>
	</linearGradient>
	<path class="st8" d="M20.4,10.4c0.2,0,0.3-0.1,0.3-0.1C5.9,11.6,3.8,20.4,3.8,20.4c-0.4,2-0.3,3.7-0.1,5
		C2.4,14.1,17.9,10.8,20.4,10.4z"/>
	<linearGradient id="SVGID_9_" gradientUnits="userSpaceOnUse" x1="15.1738" y1="23.3116" x2="9.0144" y2="11.8482">
		<stop  offset="0" style="stop-color:#E4E653"/>
		<stop  offset="1" style="stop-color:#E6E63A;stop-opacity:0"/>
	</linearGradient>
	<path class="st9" d="M20.4,10.4c0.2,0,0.3-0.1,0.3-0.1C5.9,11.6,3.8,20.4,3.8,20.4c-0.4,2-0.3,3.7-0.1,5
		C2.4,14.1,17.9,10.8,20.4,10.4z"/>
	<linearGradient id="SVGID_10_" gradientUnits="userSpaceOnUse" x1="45.2195" y1="7.7917" x2="-10.0179" y2="12.4977">
		<stop  offset="0" style="stop-color:#FFF11D"/>
		<stop  offset="1.119993e-02" style="stop-color:#FFEE1B"/>
		<stop  offset="9.744590e-02" style="stop-color:#FDDB0C"/>
		<stop  offset="0.1863" style="stop-color:#FBD003"/>
		<stop  offset="0.2809" style="stop-color:#FBCC00"/>
		<stop  offset="0.6685" style="stop-color:#F0932E"/>
		<stop  offset="0.8876" style="stop-color:#E9652D"/>
		<stop  offset="1" style="stop-color:#E4352B"/>
	</linearGradient>
	<path class="st10" d="M29,10.9C29,10.9,29,10.9,29,10.9C29,10.9,29,10.9,29,10.9c0-0.1,0-0.1,0-0.1C29.6,7.7,24,4.7,24,4.7
		c0,0,7.2,6.6,1.8,9.6C25.8,14.3,28.6,13,29,10.9z"/>
	<linearGradient id="SVGID_11_" gradientUnits="userSpaceOnUse" x1="26.9014" y1="3.4504" x2="25.6605" y2="16.7901">
		<stop  offset="0" style="stop-color:#FFF11D"/>
		<stop  offset="1.119993e-02" style="stop-color:#FFEE1B"/>
		<stop  offset="9.744590e-02" style="stop-color:#FDDB0C"/>
		<stop  offset="0.1863" style="stop-color:#FBD003"/>
		<stop  offset="0.2809" style="stop-color:#FBCC00"/>
		<stop  offset="0.6685" style="stop-color:#F0932E"/>
		<stop  offset="0.8876" style="stop-color:#E9652D"/>
		<stop  offset="1" style="stop-color:#E4352B"/>
	</linearGradient>
	<path class="st11" d="M29,10.9C29,10.9,29,10.9,29,10.9C29,10.9,29,10.9,29,10.9c0-0.1,0-0.1,0-0.1C29.6,7.7,24,4.7,24,4.7
		c0,0,7.2,6.6,1.8,9.6C25.8,14.3,28.6,13,29,10.9z"/>
	<linearGradient id="SVGID_12_" gradientUnits="userSpaceOnUse" x1="25.7695" y1="12.2126" x2="25.7695" y2="12.2126">
		<stop  offset="0" style="stop-color:#FFF11D"/>
		<stop  offset="1.119993e-02" style="stop-color:#FFEE1B"/>
		<stop  offset="9.744590e-02" style="stop-color:#FDDB0C"/>
		<stop  offset="0.1863" style="stop-color:#FBD003"/>
		<stop  offset="0.2809" style="stop-color:#FBCC00"/>
		<stop  offset="0.6685" style="stop-color:#F0932E"/>
		<stop  offset="0.8876" style="stop-color:#E9652D"/>
		<stop  offset="1" style="stop-color:#E4352B"/>
	</linearGradient>
	<path class="st12" d="M25.8,12.2"/>
	<g>
		<linearGradient id="SVGID_13_" gradientUnits="userSpaceOnUse" x1="41.96" y1="5.8997" x2="-3.4108" y2="40.8003">
			<stop  offset="0" style="stop-color:#FFF11D"/>
			<stop  offset="1.119993e-02" style="stop-color:#FFEE1B"/>
			<stop  offset="9.744590e-02" style="stop-color:#FDDB0C"/>
			<stop  offset="0.1863" style="stop-color:#FBD003"/>
			<stop  offset="0.2809" style="stop-color:#FBCC00"/>
			<stop  offset="0.6685" style="stop-color:#F0932E"/>
			<stop  offset="0.8876" style="stop-color:#E9652D"/>
			<stop  offset="1" style="stop-color:#E4352B"/>
		</linearGradient>
		<path class="st13" d="M15.5,18.8c0,0-5.1,4.6-1.8,14.6c0.6,0.1,1.2,0.2,1.8,0.3C14.8,31.8,12.1,23.4,15.5,18.8z"/>
		<linearGradient id="SVGID_14_" gradientUnits="userSpaceOnUse" x1="43.7986" y1="8.2899" x2="-1.5721" y2="43.1905">
			<stop  offset="0" style="stop-color:#FFF11D"/>
			<stop  offset="1.119993e-02" style="stop-color:#FFEE1B"/>
			<stop  offset="9.744590e-02" style="stop-color:#FDDB0C"/>
			<stop  offset="0.1863" style="stop-color:#FBD003"/>
			<stop  offset="0.2809" style="stop-color:#FBCC00"/>
			<stop  offset="0.6685" style="stop-color:#F0932E"/>
			<stop  offset="0.8876" style="stop-color:#E9652D"/>
			<stop  offset="1" style="stop-color:#E4352B"/>
		</linearGradient>
		<path class="st14" d="M17.9,33.7c0.6,0,1.3-0.1,1.9-0.2c-0.6-1.1-3.3-6.2-3.5-10.8C16.2,22.8,15.8,31.1,17.9,33.7z"/>
		<linearGradient id="SVGID_15_" gradientUnits="userSpaceOnUse" x1="45.9811" y1="11.1272" x2="0.6104" y2="46.0278">
			<stop  offset="0" style="stop-color:#FFF11D"/>
			<stop  offset="1.119993e-02" style="stop-color:#FFEE1B"/>
			<stop  offset="9.744590e-02" style="stop-color:#FDDB0C"/>
			<stop  offset="0.1863" style="stop-color:#FBD003"/>
			<stop  offset="0.2809" style="stop-color:#FBCC00"/>
			<stop  offset="0.6685" style="stop-color:#F0932E"/>
			<stop  offset="0.8876" style="stop-color:#E9652D"/>
			<stop  offset="1" style="stop-color:#E4352B"/>
		</linearGradient>
		<path class="st15" d="M19.1,27.6l3.5,5.3c0.4-0.1,0.8-0.3,1.2-0.5C23.4,31.9,21.7,30.1,19.1,27.6z"/>
		<linearGradient id="SVGID_16_" gradientUnits="userSpaceOnUse" x1="47.4355" y1="13.0179" x2="2.0647" y2="47.9185">
			<stop  offset="0" style="stop-color:#FFF11D"/>
			<stop  offset="1.119993e-02" style="stop-color:#FFEE1B"/>
			<stop  offset="9.744590e-02" style="stop-color:#FDDB0C"/>
			<stop  offset="0.1863" style="stop-color:#FBD003"/>
			<stop  offset="0.2809" style="stop-color:#FBCC00"/>
			<stop  offset="0.6685" style="stop-color:#F0932E"/>
			<stop  offset="0.8876" style="stop-color:#E9652D"/>
			<stop  offset="1" style="stop-color:#E4352B"/>
		</linearGradient>
		<path class="st16" d="M25.8,31.4c0.2-0.1,0.4-0.2,0.5-0.4L24,29.3L25.8,31.4z"/>
		<linearGradient id="SVGID_17_" gradientUnits="userSpaceOnUse" x1="38.2663" y1="1.0979" x2="-7.1045" y2="35.9985">
			<stop  offset="0" style="stop-color:#FFF11D"/>
			<stop  offset="1.119993e-02" style="stop-color:#FFEE1B"/>
			<stop  offset="9.744590e-02" style="stop-color:#FDDB0C"/>
			<stop  offset="0.1863" style="stop-color:#FBD003"/>
			<stop  offset="0.2809" style="stop-color:#FBCC00"/>
			<stop  offset="0.6685" style="stop-color:#F0932E"/>
			<stop  offset="0.8876" style="stop-color:#E9652D"/>
			<stop  offset="1" style="stop-color:#E4352B"/>
		</linearGradient>
		<path class="st17" d="M20.4,10.4c-2.5,0.4-18,3.7-16.6,15.1c0.3,1.5,0.9,2.6,1.6,3.4c0.4,0.4,0.8,0.7,1.2,1.1
			c1.8,1.3,3.7,1.5,3.7,1.5C8.3,13.7,18.4,10.8,20.4,10.4z"/>
		<linearGradient id="SVGID_18_" gradientUnits="userSpaceOnUse" x1="34.0929" y1="-4.3275" x2="-11.2779" y2="30.5731">
			<stop  offset="0" style="stop-color:#FFF11D"/>
			<stop  offset="1.119993e-02" style="stop-color:#FFEE1B"/>
			<stop  offset="9.744590e-02" style="stop-color:#FDDB0C"/>
			<stop  offset="0.1863" style="stop-color:#FBD003"/>
			<stop  offset="0.2809" style="stop-color:#FBCC00"/>
			<stop  offset="0.6685" style="stop-color:#F0932E"/>
			<stop  offset="0.8876" style="stop-color:#E9652D"/>
			<stop  offset="1" style="stop-color:#E4352B"/>
		</linearGradient>
		<path class="st18" d="M24,4.7c-1-1.5-1.6-2.2-2.7-2.9C14.9-2.5,7.5,3.8,5.9,5C5.7,5.2,5.5,5.3,5.5,5.3c0.1,0,4.4-2.2,8.5-2.3h0
			c0,0,0.1,0,0.2,0c0.6,0,1.3,0,1.9,0.1c0.8,0.1,1.9,0.3,2.9,0.7c0,0-1.1,1.3-2.7,1.3c-1.5,0-0.7-1.1-0.6-1.3
			c-15.9,2.4-15,15.5-15,15.5C11.6,7.7,21.2,9.4,21.2,9.4l0,0c2,0,4.1,0.8,4.5,2.9v2.1C31.2,11.3,24,4.7,24,4.7z"/>
	</g>
	<linearGradient id="SVGID_19_" gradientUnits="userSpaceOnUse" x1="37.3743" y1="0.5081" x2="-8.2422" y2="4.3945">
		<stop  offset="0" style="stop-color:#FFF11D"/>
		<stop  offset="1.119993e-02" style="stop-color:#FFEE1B"/>
		<stop  offset="9.744590e-02" style="stop-color:#FDDB0C"/>
		<stop  offset="0.1863" style="stop-color:#FBD003"/>
		<stop  offset="0.2809" style="stop-color:#FBCC00"/>
		<stop  offset="0.6685" style="stop-color:#F0932E"/>
		<stop  offset="0.8876" style="stop-color:#E9652D"/>
		<stop  offset="1" style="stop-color:#E4352B"/>
	</linearGradient>
	<path class="st19" d="M20.9,1.6C14.8-2.1,7.7,3.6,6.1,4.9C5.9,5,5.7,5.2,5.7,5.2C5.7,5.2,14.1-0.6,20.9,1.6z"/>
	<g>
		<path class="st20" d="M33.3,10.7h14.3l-0.2,0.9h-5.9l-1.3,7.5h6.6l-0.2,0.9h-6.6L39,26h-2.5l1.1-5.9h-6.6l0.2-0.9h6.6l1.3-7.5
			h-5.9L33.3,10.7z M33.9,18.3c-0.3-1.3-0.5-2.7-0.6-4c0-0.8,0.7-1.5,1.4-1.5h1.1c0,1.9,0.3,3.7,0.6,5.5H33.9z M41.8,18.3
			c1-1.8,1.9-3.6,2.6-5.5h1.1c0.8,0,1.2,0.7,0.9,1.5c-0.6,1.4-1.2,2.7-2,4H41.8z"/>
		<path class="st20" d="M48.5,15.3l0.3-1.6c0.1-0.6,0.7-1.1,1.3-1.1h1.3L51,10.8h2.5l0.4,1.8h1.6l0.4-2.2h1.3c0.7,0,1.1,0.5,1,1.2
			l-0.2,1h1.6l1.1-1.8h2.5l-1.1,1.8h1.3c0.6,0,1,0.5,0.9,1.1l-0.3,1.6h-2.5l0.2-1.2c0.1-0.3-0.2-0.6-0.5-0.6H52
			c-0.3,0-0.7,0.3-0.7,0.6l-0.2,1.2H48.5z M47.1,25.4l0.6-3.3c0.1-0.6,0.7-1.1,1.3-1.1h5.1l0.2-1.2h-3.6c-0.6,0-1-0.5-0.9-1.1l0.4-2
			c0.1-0.6,0.7-1.1,1.3-1.1h9.8c0.6,0,1,0.5,0.9,1.1l-0.4,2c-0.1,0.6-0.7,1.1-1.3,1.1h-3.6l-0.2,1.2h5.1c0.6,0,1,0.5,0.9,1.1
			l-0.4,2.2c-0.1,0.6-0.7,1.1-1.3,1.1h-2.8l0.2-0.9h0.8c0.3,0,0.7-0.3,0.7-0.6l0.2-1.3c0.1-0.3-0.2-0.6-0.5-0.6h-3.1l-0.5,3
			c-0.1,0.7-0.8,1.2-1.4,1.2h-1.3l0.7-4.1h-3.1c-0.3,0-0.7,0.3-0.7,0.6l-0.5,2.9H47.1z M59.5,17.1c0.1-0.3-0.2-0.6-0.5-0.6h-5.6
			c-0.3,0-0.7,0.3-0.7,0.6l-0.2,1.1c-0.1,0.3,0.2,0.6,0.5,0.6h5.6c0.3,0,0.7-0.3,0.7-0.6L59.5,17.1z"/>
		<path class="st20" d="M64.9,16.5c2.8-1.8,5.3-3.9,7.6-6.2h2.7c1.5,2.3,3.3,4.3,5.5,6.2h-3.1c-1.6-1.3-2.8-2.8-3.9-4.5
			c-1.8,1.7-3.5,3.2-5.6,4.5H64.9z M66.4,16.9H79l-0.2,0.9h-5l-0.4,2.3h5.8L79,21.2h-5.8l-0.7,3.8h1.6l1-2.2
			c0.2-0.5,0.8-0.9,1.3-0.9h1.6l-1.4,3.1H79l-0.2,0.9H63.4l0.2-0.9h2.2l-0.3-3.1h1.6c0.5,0,1,0.4,1,0.9l0.2,2.2H70l0.7-3.8H65
			l0.2-0.9h5.7l0.4-2.3h-5L66.4,16.9z"/>
		<path class="st20" d="M79.9,26c0.6-1,1-2.1,1.3-3.5l1.9-10.8c0.1-0.6,0.7-1.1,1.4-1.1h3.9c0.7,0,1.1,0.5,1,1.1L86.9,25
			c-0.1,0.6-0.7,1.1-1.4,1.1h-2.1l0.2-0.9h0.3c0.3,0,0.6-0.2,0.6-0.5l0.6-3.3h-1.3l-0.2,1.1c-0.2,1.3-0.7,2.8-1.2,3.6H79.9z
			 M86.8,11.9c0-0.3-0.1-0.4-0.4-0.4h-0.5c-0.3,0-0.4,0.1-0.5,0.4l-0.6,3.7h1.3L86.8,11.9z M83.9,20.4h1.3l0.7-3.9h-1.3L83.9,20.4z
			 M87.4,26l2.5-14.2c0.1-0.6,0.7-1.1,1.3-1.1h5.9c0.6,0,1,0.5,0.9,1.1l-0.6,3.4c-0.1,0.6-0.6,1.1-1.2,1.1h-2.8l0.2-0.9h1
			c0.2,0,0.4-0.2,0.5-0.4l0.5-2.9c0-0.2-0.1-0.4-0.3-0.4h-2.6c-0.2,0-0.4,0.2-0.4,0.4l-0.9,5.1h5.1c0.2,0,0.4,0.1,0.5,0.3
			c0.1,0.2,0.1,0.4,0,0.7c-0.8,1.7-1.7,3.4-2.7,5.1c0.4,1,0.8,2,1.4,2.9h-2.2L93,25.1c-0.2,0.3-0.5,0.6-0.7,0.9H90
			c0.8-1,1.5-2,2.1-3c-0.5-1.3-0.8-2.6-1.1-4.1l-1.3,7H87.4z M93.1,18.7c0.1,0.7,0.3,1.4,0.4,2.1c0.5-0.9,0.9-1.7,1.3-2.5
			c0,0,0-0.1,0-0.1c0,0-0.1-0.1-0.1-0.1h-3.5L91,18.7H93.1z"/>
	</g>
	<g class="st21">
		<path class="st20" d="M35,29.7c0.2,0.4,0.3,0.8,0.2,1.4c-0.1,0.6-0.3,1-0.7,1.4c-0.4,0.4-0.8,0.6-1.4,0.6c-0.5,0-0.9-0.3-1.1-0.8
			l-0.4,2.1H31l0.9-5.2h0.5l-0.1,0.6c0.4-0.5,0.8-0.7,1.4-0.7C34.3,29.1,34.7,29.3,35,29.7z M32.7,30c-0.2,0.3-0.4,0.6-0.5,1l0,0.1
			c-0.1,0.4,0,0.8,0.1,1.1c0.2,0.3,0.4,0.4,0.8,0.4c0.4,0,0.7-0.1,1-0.4c0.2-0.3,0.4-0.6,0.5-1.1c0.1-0.4,0-0.8-0.1-1.1
			c-0.2-0.3-0.4-0.5-0.8-0.5C33.3,29.6,32.9,29.7,32.7,30z"/>
		<path class="st20" d="M37,29.2L36.4,33h-0.6l0.7-3.8H37z M37.3,27.9c0.1,0.1,0.1,0.2,0.1,0.3c0,0.1-0.1,0.2-0.2,0.3
			c-0.1,0.1-0.2,0.1-0.3,0.1c-0.1,0-0.2,0-0.3-0.1c-0.1-0.1-0.1-0.2-0.1-0.3c0-0.1,0.1-0.2,0.2-0.3c0.1-0.1,0.2-0.1,0.3-0.1
			C37.1,27.8,37.2,27.8,37.3,27.9z"/>
		<path class="st20" d="M41.1,30.7L40.6,33h-0.6l0.4-2.3c0.1-0.7-0.1-1.1-0.8-1.1c-0.3,0-0.5,0.1-0.7,0.3c-0.2,0.2-0.4,0.5-0.5,0.8
			L38,33h-0.6l0.7-3.8h0.6l-0.1,0.6c0.2-0.2,0.4-0.4,0.6-0.5c0.2-0.1,0.5-0.2,0.7-0.2C40.9,29.1,41.2,29.6,41.1,30.7z"/>
		<path class="st20" d="M44.9,29.9l0.1-0.7h0.6L45,32.7c-0.2,1.2-0.9,1.8-2,1.8c-0.5,0-0.9-0.1-1.1-0.3c-0.2-0.2-0.3-0.5-0.3-0.9
			h0.6c0,0.3,0.1,0.4,0.2,0.6c0.1,0.1,0.4,0.2,0.7,0.2c0.8,0,1.2-0.4,1.4-1.3l0.1-0.7c-0.4,0.5-0.8,0.8-1.4,0.8
			c-0.5,0-0.9-0.2-1.2-0.5c-0.2-0.4-0.3-0.8-0.2-1.3c0.1-0.6,0.3-1,0.7-1.4c0.4-0.4,0.8-0.6,1.3-0.6C44.4,29.1,44.7,29.4,44.9,29.9z
			 M42.8,30c-0.2,0.2-0.4,0.6-0.5,1c-0.1,0.4,0,0.7,0.1,1c0.2,0.3,0.4,0.4,0.8,0.4c0.4,0,0.7-0.1,1-0.4c0.3-0.3,0.4-0.6,0.5-1
			c0.1-0.4,0-0.8-0.1-1c-0.2-0.3-0.4-0.4-0.8-0.4C43.4,29.6,43.1,29.7,42.8,30z"/>
		<path class="st20" d="M49.3,29.4c0.3,0.2,0.4,0.6,0.4,1H49c0-0.3-0.1-0.5-0.2-0.7c-0.2-0.1-0.4-0.2-0.7-0.2
			c-0.4,0-0.7,0.1-0.9,0.4c-0.3,0.3-0.4,0.6-0.5,1.1c-0.1,0.5-0.1,0.8,0.1,1.1c0.2,0.3,0.4,0.4,0.8,0.4c0.6,0,1.1-0.3,1.3-1h0.6
			c-0.2,0.5-0.4,0.9-0.8,1.1c-0.3,0.2-0.7,0.4-1.2,0.4c-0.6,0-1-0.2-1.2-0.6c-0.2-0.4-0.3-0.8-0.2-1.4c0.1-0.6,0.3-1,0.7-1.4
			c0.4-0.4,0.9-0.6,1.4-0.6C48.7,29.1,49,29.2,49.3,29.4z"/>
		<path class="st20" d="M51.4,27.7L51,29.8c0.2-0.2,0.4-0.4,0.6-0.5c0.2-0.1,0.5-0.2,0.7-0.2c0.4,0,0.8,0.1,0.9,0.4
			c0.2,0.3,0.2,0.6,0.2,1.1L53,33h-0.6l0.4-2.3c0.1-0.4,0-0.6-0.1-0.8c-0.1-0.2-0.4-0.3-0.7-0.3c-0.3,0-0.6,0.1-0.8,0.4
			c-0.2,0.2-0.4,0.5-0.4,0.9L50.5,33h-0.6l0.9-5.3H51.4z"/>
		<path class="st20" d="M57.4,29.5c0.2,0.2,0.2,0.6,0.2,1L57.1,33h-0.5l0.1-0.6c-0.2,0.2-0.4,0.4-0.7,0.5c-0.3,0.2-0.6,0.2-1,0.2
			c-0.4,0-0.7-0.1-0.9-0.3C54,32.6,53.9,32.4,54,32c0.1-0.4,0.3-0.8,0.7-1c0.3-0.2,0.8-0.3,1.4-0.3l0.9,0l0-0.2c0.1-0.6-0.2-1-0.8-1
			c-0.3,0-0.5,0.1-0.7,0.2c-0.2,0.1-0.4,0.3-0.5,0.5l-0.6,0c0.2-0.4,0.4-0.7,0.7-0.9c0.3-0.2,0.7-0.3,1.1-0.3
			C56.8,29.1,57.2,29.2,57.4,29.5z M56,31.2c-0.9,0-1.3,0.3-1.4,0.8c0,0.2,0,0.3,0.1,0.4c0.1,0.1,0.3,0.2,0.5,0.2
			c0.4,0,0.7-0.1,1-0.4c0.3-0.2,0.5-0.5,0.5-0.8l0.1-0.3L56,31.2z"/>
		<path class="st20" d="M61.6,30.7L61.2,33h-0.6l0.4-2.3c0.1-0.7-0.1-1.1-0.8-1.1c-0.3,0-0.5,0.1-0.7,0.3c-0.2,0.2-0.4,0.5-0.5,0.8
			L58.6,33H58l0.7-3.8h0.6l-0.1,0.6c0.2-0.2,0.4-0.4,0.6-0.5c0.2-0.1,0.5-0.2,0.7-0.2C61.4,29.1,61.8,29.6,61.6,30.7z"/>
		<path class="st20" d="M65.5,29.9l0.1-0.7h0.6l-0.6,3.5c-0.2,1.2-0.9,1.8-2,1.8c-0.5,0-0.9-0.1-1.1-0.3c-0.2-0.2-0.3-0.5-0.3-0.9
			h0.6c0,0.3,0.1,0.4,0.2,0.6c0.1,0.1,0.4,0.2,0.7,0.2c0.8,0,1.2-0.4,1.4-1.3l0.1-0.7c-0.4,0.5-0.8,0.8-1.4,0.8
			c-0.5,0-0.9-0.2-1.2-0.5c-0.2-0.4-0.3-0.8-0.2-1.3c0.1-0.6,0.3-1,0.7-1.4c0.4-0.4,0.8-0.6,1.3-0.6C64.9,29.1,65.3,29.4,65.5,29.9z
			 M63.4,30c-0.2,0.2-0.4,0.6-0.5,1c-0.1,0.4,0,0.7,0.1,1c0.2,0.3,0.4,0.4,0.8,0.4c0.4,0,0.7-0.1,1-0.4c0.3-0.3,0.4-0.6,0.5-1
			c0.1-0.4,0-0.8-0.1-1c-0.2-0.3-0.4-0.4-0.8-0.4C64,29.6,63.7,29.7,63.4,30z"/>
		<path class="st20" d="M70.6,29.1H70c0-0.6-0.3-0.9-0.9-0.9c-0.4,0-0.8,0.2-1.1,0.6c-0.3,0.4-0.5,0.9-0.6,1.5c0,0,0,0.1,0,0.2h0
			c0.2-0.3,0.4-0.5,0.7-0.6c0.3-0.2,0.5-0.2,0.9-0.2c0.5,0,0.9,0.2,1.1,0.5c0.2,0.3,0.3,0.7,0.2,1.2c-0.1,0.5-0.3,0.9-0.7,1.3
			c-0.4,0.3-0.8,0.5-1.4,0.5c-0.6,0-1.1-0.2-1.3-0.7c-0.2-0.4-0.3-1.1-0.1-1.9c0.1-0.8,0.4-1.5,0.8-2c0.4-0.5,1-0.8,1.5-0.8
			C70.2,27.7,70.6,28.1,70.6,29.1z M67.8,30.4c-0.3,0.2-0.4,0.5-0.5,0.9c-0.1,0.4,0,0.7,0.2,0.9c0.2,0.2,0.4,0.4,0.8,0.4
			c0.4,0,0.7-0.1,0.9-0.4c0.3-0.2,0.4-0.6,0.5-0.9c0.1-0.4,0-0.7-0.2-0.9c-0.2-0.2-0.4-0.3-0.8-0.3C68.4,30.1,68.1,30.2,67.8,30.4z"
			/>
		<path class="st20" d="M75,29.1h-0.6c0-0.6-0.3-0.9-0.9-0.9c-0.4,0-0.8,0.2-1.1,0.6c-0.3,0.4-0.5,0.9-0.6,1.5c0,0,0,0.1,0,0.2h0
			c0.2-0.3,0.4-0.5,0.7-0.6c0.3-0.2,0.5-0.2,0.9-0.2c0.5,0,0.9,0.2,1.1,0.5c0.2,0.3,0.3,0.7,0.2,1.2c-0.1,0.5-0.3,0.9-0.7,1.3
			c-0.4,0.3-0.8,0.5-1.4,0.5c-0.6,0-1.1-0.2-1.3-0.7c-0.2-0.4-0.3-1.1-0.1-1.9c0.1-0.8,0.4-1.5,0.8-2c0.4-0.5,1-0.8,1.5-0.8
			C74.6,27.7,75,28.1,75,29.1z M72.2,30.4c-0.3,0.2-0.4,0.5-0.5,0.9c-0.1,0.4,0,0.7,0.2,0.9c0.2,0.2,0.4,0.4,0.8,0.4
			c0.4,0,0.7-0.1,0.9-0.4c0.3-0.2,0.4-0.6,0.5-0.9c0.1-0.4,0-0.7-0.2-0.9c-0.2-0.2-0.4-0.3-0.8-0.3C72.8,30.1,72.5,30.2,72.2,30.4z"
			/>
		<path class="st20" d="M79.4,29.1h-0.6c0-0.6-0.3-0.9-0.9-0.9c-0.4,0-0.8,0.2-1.1,0.6c-0.3,0.4-0.5,0.9-0.6,1.5c0,0,0,0.1,0,0.2h0
			c0.2-0.3,0.4-0.5,0.7-0.6c0.3-0.2,0.5-0.2,0.9-0.2c0.5,0,0.9,0.2,1.1,0.5c0.2,0.3,0.3,0.7,0.2,1.2c-0.1,0.5-0.3,0.9-0.7,1.3
			c-0.4,0.3-0.8,0.5-1.4,0.5c-0.6,0-1.1-0.2-1.3-0.7c-0.2-0.4-0.3-1.1-0.1-1.9c0.1-0.8,0.4-1.5,0.8-2c0.4-0.5,1-0.8,1.5-0.8
			C78.9,27.7,79.4,28.1,79.4,29.1z M76.6,30.4c-0.3,0.2-0.4,0.5-0.5,0.9c-0.1,0.4,0,0.7,0.2,0.9c0.2,0.2,0.4,0.4,0.8,0.4
			c0.4,0,0.7-0.1,0.9-0.4c0.3-0.2,0.4-0.6,0.5-0.9c0.1-0.4,0-0.7-0.2-0.9c-0.2-0.2-0.4-0.3-0.8-0.3C77.2,30.1,76.9,30.2,76.6,30.4z"
			/>
		<path class="st20" d="M80.6,32.3c0.1,0.1,0.1,0.2,0.1,0.3c0,0.1-0.1,0.2-0.2,0.3C80.4,33,80.2,33,80.1,33c-0.1,0-0.2,0-0.3-0.1
			c-0.1-0.1-0.1-0.2-0.1-0.3c0-0.1,0.1-0.2,0.2-0.3c0.1-0.1,0.2-0.1,0.3-0.1C80.4,32.1,80.5,32.2,80.6,32.3z"/>
		<path class="st20" d="M84.9,29.4c0.3,0.2,0.4,0.6,0.4,1h-0.6c0-0.3-0.1-0.5-0.2-0.7c-0.2-0.1-0.4-0.2-0.7-0.2
			c-0.4,0-0.7,0.1-0.9,0.4c-0.3,0.3-0.4,0.6-0.5,1.1c-0.1,0.5-0.1,0.8,0.1,1.1c0.2,0.3,0.4,0.4,0.8,0.4c0.6,0,1.1-0.3,1.3-1h0.6
			c-0.2,0.5-0.4,0.9-0.8,1.1c-0.3,0.2-0.7,0.4-1.2,0.4c-0.6,0-1-0.2-1.2-0.6c-0.2-0.4-0.3-0.8-0.2-1.4c0.1-0.6,0.3-1,0.7-1.4
			c0.4-0.4,0.9-0.6,1.4-0.6C84.3,29.1,84.7,29.2,84.9,29.4z"/>
		<path class="st20" d="M89.2,29.7c0.3,0.4,0.3,0.8,0.2,1.4c-0.1,0.6-0.3,1-0.7,1.4c-0.4,0.4-0.9,0.6-1.5,0.6c-0.6,0-1-0.2-1.2-0.6
			c-0.3-0.4-0.3-0.8-0.2-1.4c0.1-0.6,0.3-1,0.7-1.4c0.4-0.4,0.9-0.6,1.5-0.6C88.5,29.1,88.9,29.3,89.2,29.7z M86.8,30.1
			c-0.3,0.3-0.4,0.6-0.5,1c-0.1,0.4,0,0.8,0.1,1c0.2,0.3,0.5,0.5,0.9,0.5c0.4,0,0.7-0.2,1-0.5c0.2-0.3,0.4-0.6,0.5-1
			c0.1-0.4,0-0.8-0.1-1c-0.2-0.3-0.5-0.5-0.9-0.5C87.4,29.6,87.1,29.8,86.8,30.1z"/>
		<path class="st20" d="M93.2,29.8c0.2-0.2,0.4-0.4,0.6-0.5c0.2-0.1,0.4-0.2,0.7-0.2c0.4,0,0.7,0.1,0.9,0.4c0.2,0.3,0.3,0.6,0.2,1
			L95.2,33h-0.6l0.4-2.4c0.1-0.3,0-0.6-0.1-0.7c-0.1-0.2-0.3-0.3-0.7-0.3c-0.2,0-0.5,0.1-0.7,0.3c-0.2,0.2-0.3,0.4-0.4,0.7L92.8,33
			h-0.6l0.4-2.4c0.1-0.7-0.1-1-0.7-1c-0.3,0-0.5,0.1-0.7,0.3c-0.2,0.2-0.3,0.5-0.4,0.8L90.4,33h-0.6l0.7-3.8h0.6L91,29.7
			c0.4-0.4,0.8-0.6,1.2-0.6C92.8,29.1,93.1,29.3,93.2,29.8z"/>
	</g>
</g>
<rect id="_x3C_切片_x3E_" class="st1" width="98" height="35"/>
</svg>
